# xmcd CD database file
#
# Track frame offsets:
#	150
#	18951
#	37922
#	57524
#	76529
#	98006
#	118257
#	140191
#	161106
#	175879
#	192695
#	209074
#	228960
#	249066
#	264438
#
# Disc length: 3727 seconds
#
# Revision: 5
# Processed by: cddbd v1.5.1PL0 Copyright (c) Steve Scherf et al.
# Submitted via: CDex 1.51
#
DISCID=cc0e8d0f
DTITLE=Zezé Di Camargo and Luciano - Pare
DYEAR=2000
DGENRE=Country
TTITLE0=Pare!
TTITLE1=Será Que Foi Saudade?
TTITLE2=Amor Selvagem
TTITLE3=Tá Escrito Em Meu Olhar
TTITLE4=Chega mais
TTITLE5=Quem É Ele?
TTITLE6=Você Mudou Demais
TTITLE7=Amor, Prá Que Bye Bye?
TTITLE8=Eu Nasci pra amar Você
TTITLE9=Irresistível
TTITLE10=Fui Homem Demais
TTITLE11=Seu Melhor Presente
TTITLE12=Indiferença em seu olhar
TTITLE13=Saudade
TTITLE14=O Último dos Apaixonados
EXTD=YEAR: 2000
EXTT0=
EXTT1=
EXTT2=
EXTT3=
EXTT4=
EXTT5=
EXTT6=
EXTT7=
EXTT8=
EXTT9=
EXTT10=
EXTT11=
EXTT12=
EXTT13=
EXTT14=
PLAYORDER=
